<svg xmlns="http://www.w3.org/2000/svg" style="display: none;"><symbol id="sun-1" viewBox="0 0 496 496"><title>sun-1</title><path d="M448,448c-16.68,0-31.392,8.544-40,21.496C399.392,456.544,384.68,448,368,448s-31.392,8.544-40,21.496 C319.392,456.544,304.68,448,288,448s-31.392,8.544-40,21.496C239.392,456.544,224.68,448,208,448s-31.392,8.544-40,21.496 C159.392,456.544,144.68,448,128,448s-31.392,8.544-40,21.496C79.392,456.544,64.68,448,48,448c-26.472,0-48,21.528-48,48h16 c0-17.648,14.352-32,32-32s32,14.352,32,32h16c0-17.648,14.352-32,32-32s32,14.352,32,32h16c0-17.648,14.352-32,32-32 s32,14.352,32,32h16c0-17.648,14.352-32,32-32s32,14.352,32,32h16c0-17.648,14.352-32,32-32s32,14.352,32,32h16 c0-17.648,14.352-32,32-32s32,14.352,32,32h16C496,469.528,474.472,448,448,448z"/><path d="M448,405.496C439.392,392.544,424.68,384,408,384s-31.392,8.544-40,21.496C359.392,392.544,344.68,384,328,384 s-31.392,8.544-40,21.496C279.392,392.544,264.68,384,248,384s-31.392,8.544-40,21.496C199.392,392.544,184.68,384,168,384 s-31.392,8.544-40,21.496C119.392,392.544,104.68,384,88,384s-31.392,8.544-40,21.496C39.392,392.544,24.68,384,8,384H0v16h8 c17.648,0,32,14.352,32,32h16c0-17.648,14.352-32,32-32s32,14.352,32,32h16c0-17.648,14.352-32,32-32s32,14.352,32,32h16 c0-17.648,14.352-32,32-32s32,14.352,32,32h16c0-17.648,14.352-32,32-32s32,14.352,32,32h16c0-17.648,14.352-32,32-32 s32,14.352,32,32h16c0-17.648,14.352-32,32-32h8v-16h-8C471.32,384,456.608,392.544,448,405.496z"/><path d="M448,320c-16.68,0-31.392,8.544-40,21.496c-3.392-5.104-7.76-9.48-12.792-12.96C408.768,303.792,416,276.056,416,248 c0-92.64-75.368-168-168-168S80,155.36,80,248c0,28.056,7.232,55.792,20.792,80.528c-5.032,3.48-9.4,7.864-12.792,12.96 C79.392,328.544,64.68,320,48,320c-26.472,0-48,21.528-48,48h16c0-17.648,14.352-32,32-32s32,14.352,32,32h16 c0-17.648,14.352-32,32-32s32,14.352,32,32h16c0-17.648,14.352-32,32-32s32,14.352,32,32h16c0-17.648,14.352-32,32-32 s32,14.352,32,32h16c0-17.648,14.352-32,32-32s32,14.352,32,32h16c0-17.648,14.352-32,32-32s32,14.352,32,32h16 C496,341.528,474.472,320,448,320z M380.704,321.744C376.656,320.632,372.4,320,368,320c-16.68,0-31.392,8.544-40,21.496 C319.392,328.544,304.68,320,288,320s-31.392,8.544-40,21.496C239.392,328.544,224.68,320,208,320s-31.392,8.544-40,21.496 C159.392,328.544,144.68,320,128,320c-4.4,0-8.656,0.632-12.704,1.744C102.696,299.128,96,273.712,96,248 c0-83.816,68.184-152,152-152s152,68.184,152,152C400,273.712,393.304,299.128,380.704,321.744z"/><rect y="240" width="64" height="16"/><rect x="427.054" y="107.987" transform="matrix(0.4999 0.8661 -0.8661 0.4999 338.8137 -306.7861)" width="16" height="64.001"/><rect x="347.989" y="28.928" transform="matrix(0.8661 0.4999 -0.4999 0.8661 78.1294 -169.7974)" width="16" height="64.001"/><rect x="240" width="16" height="64"/><rect x="107.997" y="52.939" transform="matrix(0.5 0.866 -0.866 0.5 122.7704 -90.7706)" width="63.999" height="16"/><rect x="28.933" y="131.998" transform="matrix(0.866 0.5 -0.5 0.866 78.164 -11.7097)" width="63.999" height="16"/><rect x="432" y="232" width="64" height="16"/></symbol><symbol id="storm" viewBox="0 0 496 496"><title>storm</title><path d="M413.968,118.948C402.968,54.036,346.464,5.852,280,5.852c-60.16,0-112.6,39.232-129.944,96.272 c-2.048-0.184-4.072-0.272-6.056-0.272c-24.032,0-46.56,12.184-59.856,32.08C37.4,135.964,0,174.62,0,221.852 c0,48.52,39.48,88,88,88v-16c-39.704,0-72-32.304-72-72s32.296-72,71.688-72.008l5.536,0.04l2.304-3.992 c10.008-17.296,28.592-28.04,48.472-28.04c3.352,0,6.856,0.336,10.424,1.008l7.424,1.4l1.824-7.336 C176.96,59.3,224.8,21.852,280,21.852c60.512,0,111.672,45.28,119.008,105.32l0.56,4.592c0.272,3.328,0.432,6.688,0.432,10.088 c0,66.168-53.832,120-120,120v16c74.992,0,136-61.008,136-136c0-2.12-0.176-4.2-0.272-6.296 C452.432,142.94,480,175.62,480,213.852c0,44.112-35.888,80-80,80v16c52.936,0,96-43.064,96-96 C496,166.276,460.464,125.78,413.968,118.948z"/><rect x="104.023" y="307.96" transform="matrix(0.8944 0.4472 -0.4472 0.8944 157.5498 -15.6973)" width="16" height="35.775"/><rect x="79.981" y="355.987" transform="matrix(-0.8944 -0.4472 0.4472 -0.8944 -0.5291 747.6239)" width="15.999" height="35.775"/><rect x="56.019" y="403.958" transform="matrix(-0.8944 -0.4472 0.4472 -0.8944 -67.3761 827.7858)" width="15.999" height="35.775"/><rect x="31.978" y="451.961" transform="matrix(-0.8944 -0.4472 0.4472 -0.8944 -134.3881 907.9729)" width="16" height="35.775"/><rect x="150.098" y="317.849" transform="matrix(0.4472 -0.8944 0.8944 0.4472 -198.5879 330.3757)" width="35.775" height="16"/><rect x="135.984" y="355.965" transform="matrix(-0.8944 -0.4472 0.4472 -0.8944 105.5769 772.6271)" width="16" height="35.775"/><rect x="111.983" y="403.952" transform="matrix(-0.8944 -0.4472 0.4472 -0.8944 38.6449 852.8013)" width="15.999" height="35.775"/><rect x="87.981" y="451.963" transform="matrix(-0.8944 -0.4472 0.4472 -0.8944 -28.2956 933.0211)" width="15.999" height="35.775"/><rect x="311.984" y="307.973" transform="matrix(0.8944 0.4472 -0.4472 0.8944 179.5092 -108.6988)" width="16" height="35.775"/><rect x="287.983" y="355.952" transform="matrix(-0.8944 -0.4472 0.4472 -0.8944 393.5303 840.5787)" width="15.999" height="35.775"/><rect x="263.989" y="404.003" transform="matrix(-0.8944 -0.4472 0.4472 -0.8944 326.587 920.8778)" width="15.999" height="35.775"/><rect x="239.979" y="451.966" transform="matrix(-0.8944 -0.4472 0.4472 -0.8944 259.6536 1001.0031)" width="16" height="35.775"/><rect x="368.003" y="307.974" transform="matrix(-0.8944 -0.4472 0.4472 -0.8944 566.5801 785.4752)" width="15.999" height="35.775"/><rect x="343.962" y="355.969" transform="matrix(-0.8944 -0.4472 0.4472 -0.8944 499.5718 865.6465)" width="16" height="35.775"/><rect x="320" y="403.997" transform="matrix(-0.8944 -0.4472 0.4472 -0.8944 432.6999 945.9146)" width="16" height="35.775"/><rect x="295.959" y="451.968" transform="matrix(-0.8944 -0.4472 0.4472 -0.8944 365.7005 1026.0409)" width="15.999" height="35.775"/><polygon points="198.136,389.852 238.856,321.972 225.144,313.732 169.864,405.852 217.432,405.852 169.248,481.556 182.752,490.148 246.568,389.852 "/></symbol><symbol id="rain-1" viewBox="0 0 496 496"><title>rain-1</title><path d="M413.976,171.3C403.144,107.388,348.16,59.788,283.032,58.34C265.888,28.548,234.528,10.204,200,10.204 c-40.936,0-77.176,26.096-90.528,64.28c-20.736-2.112-40.216,7.472-51.624,24.064C25.08,101.628,0,128.796,0,162.204 c0,20.104,9.424,38.616,25.04,50.616C9.568,228.684,0,250.34,0,274.204c0,48.52,39.48,88,88,88v-16c-39.696,0-72-32.296-72-72 c0-39.704,32.304-72,71.688-72.008l5.536,0.04l2.312-3.992c10.008-17.296,28.576-28.04,48.464-28.04 c3.352,0,6.856,0.344,10.416,1.008l7.424,1.4l1.824-7.336C176.96,111.66,224.8,74.204,280,74.204 c60.504,0,111.672,45.28,119.008,105.32l0.56,4.552c0.272,3.344,0.432,6.712,0.432,10.128c0,66.168-53.832,120-120,120v16 c74.992,0,136-61.008,136-136c0-2.128-0.176-4.2-0.272-6.296C452.432,195.292,480,227.972,480,266.204c0,44.112-35.888,80-80,80 v16c52.936,0,96-43.064,96-96C496,218.636,460.464,178.132,413.976,171.3z M150.048,154.476 c-26.72-2.328-51.504,10.264-65.904,31.816c-17.272,0.744-33.248,6.52-46.56,15.856C24.192,193.3,16,178.444,16,162.204 c0-26.144,20.496-47.192,46.648-47.92l4.472-0.128l2.232-3.872C76.504,97.9,89.776,90.204,104,90.204 c3.016,0,6.032,0.368,9.224,1.12l7.56,1.776l2-7.504c9.32-34.968,41.064-59.392,77.216-59.392 c25.88,0,49.584,12.416,64.488,32.984C211,65.284,165.888,102.412,150.048,154.476z"/><rect x="127.971" y="352.31" transform="matrix(0.8944 0.4472 -0.4472 0.8944 179.9121 -21.7254)" width="16" height="35.775"/><rect x="104.01" y="400.313" transform="matrix(-0.8944 -0.4472 0.4472 -0.8944 25.1691 842.3426)" width="16" height="35.775"/><rect x="79.968" y="448.332" transform="matrix(-0.8944 -0.4472 0.4472 -0.8944 -41.8492 922.5602)" width="16" height="35.775"/><rect x="183.975" y="352.303" transform="matrix(0.8944 0.4472 -0.4472 0.8944 185.8224 -46.7715)" width="15.999" height="35.775"/><rect x="160.013" y="400.315" transform="matrix(-0.8944 -0.4472 0.4472 -0.8944 131.2616 867.3909)" width="15.999" height="35.775"/><rect x="135.971" y="448.31" transform="matrix(-0.8944 -0.4472 0.4472 -0.8944 64.2532 947.5627)" width="16" height="35.775"/><rect x="239.986" y="352.321" transform="matrix(0.8944 0.4472 -0.4472 0.8944 191.7428 -71.8186)" width="16" height="35.775"/><rect x="215.984" y="400.348" transform="matrix(-0.8944 -0.4472 0.4472 -0.8944 237.2807 892.4858)" width="16" height="35.775"/><rect x="191.975" y="448.319" transform="matrix(-0.8944 -0.4472 0.4472 -0.8944 170.342 972.6262)" width="15.999" height="35.775"/><rect x="295.989" y="352.323" transform="matrix(0.8944 0.4472 -0.4472 0.8944 197.6567 -96.864)" width="15.999" height="35.775"/><rect x="271.987" y="400.342" transform="matrix(-0.8944 -0.4472 0.4472 -0.8944 343.3775 917.519)" width="16" height="35.775"/><rect x="247.986" y="448.313" transform="matrix(-0.8944 -0.4472 0.4472 -0.8944 276.4549 997.6631)" width="16" height="35.775"/><rect x="351.984" y="352.284" transform="matrix(-0.8944 -0.4472 0.4472 -0.8944 516.4177 862.2531)" width="16" height="35.775"/><rect x="327.983" y="400.319" transform="matrix(-0.8944 -0.4472 0.4472 -0.8944 449.4673 942.5182)" width="15.999" height="35.775"/><rect x="303.981" y="448.307" transform="matrix(-0.8944 -0.4472 0.4472 -0.8944 382.5356 1022.6929)" width="15.999" height="35.775"/></symbol><symbol id="rain" viewBox="0 0 496 496"><title>rain</title><path d="M413.968,209.096C402.968,144.184,346.464,96,280,96c-12.056,0-23.776,1.64-34.992,4.624 C225.504,72.664,194.272,56,160,56c-57.344,0-104,46.656-104,104c0,23.72,7.968,46.264,22.576,64.6 C34.48,229.336,0,266.672,0,312c0,48.52,39.48,88,88,88v-16c-39.704,0-72-32.304-72-72s32.296-72,71.688-72.008l5.536,0.04 l2.304-3.992C105.536,218.744,124.12,208,144,208c3.352,0,6.856,0.336,10.424,1.008l7.424,1.4l1.824-7.336 C176.96,149.448,224.8,112,280,112c60.512,0,111.672,45.28,119.008,105.32l0.56,4.592C399.84,225.24,400,228.6,400,232 c0,66.168-53.832,120-120,120v16c74.992,0,136-61.008,136-136c0-2.12-0.176-4.2-0.272-6.296C452.432,233.088,480,265.768,480,304 c0,44.112-35.888,80-80,80v16c52.936,0,96-43.064,96-96C496,256.424,460.464,215.928,413.968,209.096z M150.056,192.272 C148.008,192.088,145.984,192,144,192c-20.12,0-39.104,8.624-52.584,23.08C78.848,199.496,72,180.248,72,160 c0-48.52,39.48-88,88-88c27.4,0,52.568,12.536,69.192,33.896C191.816,120.952,162.248,152.176,150.056,192.272z"/><rect y="152" width="40" height="16"/><rect x="250.994" y="41.046" transform="matrix(0.7071 0.7071 -0.7071 0.7071 119.0232 -165.2563)" width="16" height="40"/><rect x="152" width="16" height="40"/><rect x="41.007" y="52.995" transform="matrix(0.7072 0.7071 -0.7071 0.7072 60.9932 -25.2743)" width="40.002" height="16.001"/><rect x="97.483" y="30.045" transform="matrix(0.3828 0.9238 -0.9238 0.3828 102.718 -77.6621)" width="23.999" height="16"/><rect x="26.089" y="101.491" transform="matrix(0.9239 0.3827 -0.3827 0.9239 44.8006 -6.2418)" width="24.001" height="16"/><rect x="30.026" y="198.507" transform="matrix(-0.3828 -0.9238 0.9238 -0.3828 -141.8889 326.2196)" width="16" height="23.999"/><rect x="202.514" y="26.054" transform="matrix(0.9238 0.3828 -0.3828 0.9238 30.603 -77.6883)" width="16" height="23.999"/><rect x="352" y="464" width="16" height="32"/><rect x="352" y="416" width="16" height="32"/><rect x="352" y="368" width="16" height="32"/><rect x="304" y="440" width="16" height="32"/><rect x="304" y="392" width="16" height="32"/><rect x="256" y="464" width="16" height="32"/><rect x="256" y="416" width="16" height="32"/><rect x="256" y="368" width="16" height="32"/><rect x="208" y="440" width="16" height="32"/><rect x="208" y="392" width="16" height="32"/><rect x="160" y="464" width="16" height="32"/><rect x="160" y="416" width="16" height="32"/><rect x="160" y="368" width="16" height="32"/><rect x="112" y="440" width="16" height="32"/><rect x="112" y="392" width="16" height="32"/></symbol><symbol id="clouds" viewBox="0 0 496 496"><title>clouds</title><path d="M463.96,317.432C462.6,270.088,423.664,232,376,232c-33.72,0-63.928,18.928-78.744,48.776 c-3.064-0.52-6.152-0.776-9.256-0.776c-21.76,0-41.408,12.664-50.576,32.056C207.736,313.408,184,337.984,184,368 c0,30.88,25.128,56,56,56h200c30.872,0,56-25.12,56-56C496,346.256,483.344,326.616,463.96,317.432z M440,408H240 c-22.056,0-40-17.944-40-40c0-22.056,17.944-40,40-40c0.496,0,0.976,0.04,1.464,0.072l6.832,0.416l1.992-5.704 C255.904,306.768,271.064,296,288,296c3.896,0,7.784,0.576,11.536,1.712l6.992,2.104l2.736-6.768 C320.336,265.68,346.52,248,376,248c39.704,0,72,32.304,72,72l-0.336,8.344l5.544,1.944C469.232,335.904,480,351.064,480,368 C480,390.056,462.056,408,440,408z"/><path d="M312,208c0-21.744-12.656-41.384-32.04-50.568C278.6,110.088,239.664,72,192,72c-33.72,0-63.928,18.928-78.744,48.776 c-3.064-0.52-6.152-0.776-9.256-0.776c-21.76,0-41.408,12.664-50.576,32.056C23.736,153.408,0,177.984,0,208 c0,30.88,25.128,56,56,56h200C286.872,264,312,238.88,312,208z M16,208c0-22.056,17.944-40,40-40c0.496,0,0.976,0.04,1.464,0.072 l6.832,0.416l1.992-5.704C71.904,146.768,87.064,136,104,136c3.896,0,7.784,0.576,11.536,1.712l6.992,2.104l2.736-6.768 C136.336,105.68,162.52,88,192,88c39.704,0,72,32.304,72,72l-0.336,8.344l5.544,1.944C285.232,175.904,296,191.064,296,208 c0,22.056-17.944,40-40,40H56C33.944,248,16,230.056,16,208z"/></symbol><symbol id="cloudy" viewBox="0 0 496 496"><title>cloudy</title><path d="M413.968,233.096c-10.832-63.92-65.816-111.512-130.944-112.96C265.88,90.336,234.536,72,200,72 c-40.936,0-77.168,26.096-90.52,64.288c-20.696-2.144-40.208,7.464-51.624,24.056C25.08,163.424,0,190.6,0,224 c0,20.104,9.424,38.616,25.04,50.616C9.568,290.488,0,312.136,0,336c0,48.52,39.48,88,88,88h312c52.936,0,96-43.064,96-96 C496,280.424,460.464,239.928,413.968,233.096z M16,224c0-26.144,20.496-47.192,46.648-47.928l4.472-0.128l2.232-3.872 c8.648-14.984,25.728-23.24,43.864-18.96l7.56,1.792l2-7.512C132.104,112.424,163.848,88,200,88 c25.88,0,49.584,12.416,64.496,32.984c-53.496,6.096-98.608,43.224-114.44,95.288C148.008,216.088,145.984,216,144,216 c-24.032,0-46.56,12.184-59.856,32.08c-17.272,0.752-33.248,6.528-46.552,15.864C24.2,255.096,16,240.24,16,224z M400,408H88 c-39.704,0-72-32.296-72-72c0-39.704,32.296-72,71.688-72.008l5.536,0.04l2.304-3.992C105.536,242.744,124.12,232,144,232 c3.352,0,6.856,0.336,10.424,1.008l7.424,1.4l1.824-7.336C176.96,173.448,224.8,136,280,136 c60.512,0,111.672,45.28,119.008,105.32l0.56,4.592C399.84,249.24,400,252.6,400,256c0,66.168-53.832,120-120,120v16 c74.992,0,136-61.008,136-136c0-2.12-0.176-4.2-0.272-6.296C452.432,257.088,480,289.776,480,328C480,372.112,444.112,408,400,408 z"/></symbol><symbol id="snowing" viewBox="0 0 496 496"><title>snowing</title><path d="M413.976,113.096C402.968,48.184,346.456,0,280,0c-60.16,0-112.6,39.232-129.952,96.272 c-26.728-2.336-51.512,10.264-65.912,31.816C37.4,130.112,0,168.768,0,216c0,48.52,39.48,88,88,88h312c52.936,0,96-43.064,96-96 C496,160.424,460.464,119.928,413.976,113.096z M400,288H88c-39.696,0-72-32.304-72-72s32.304-72,71.688-72.008l5.536,0.04 l2.312-3.992C105.544,122.744,124.112,112,144,112c3.352,0,6.856,0.336,10.416,1.008l7.424,1.4l1.824-7.336 C176.96,53.448,224.8,16,280,16c60.504,0,111.672,45.28,119.008,105.32l0.56,4.552C399.84,129.216,400,132.592,400,136 c0,66.168-53.832,120-120,120v16c74.992,0,136-61.008,136-136c0-2.12-0.176-4.2-0.272-6.296C452.432,137.088,480,169.768,480,208 C480,252.112,444.112,288,400,288z"/><polygon points="180.424,328.84 160,339.056 160,320 144,320 144,339.056 123.576,328.84 116.424,343.16 134.112,352 116.424,360.84 123.576,375.16 144,364.944 144,384 160,384 160,364.944 180.424,375.16 187.576,360.84 169.888,352 187.576,343.16 "/><polygon points="180.424,408.84 160,419.056 160,400 144,400 144,419.056 123.576,408.84 116.424,423.16 134.112,432 116.424,440.84 123.576,455.16 144,444.944 144,464 160,464 160,444.944 180.424,455.16 187.576,440.84 169.888,432 187.576,423.16 "/><polygon points="372.424,328.84 352,339.056 352,320 336,320 336,339.056 315.576,328.84 308.424,343.16 326.112,352 308.424,360.84 315.576,375.16 336,364.944 336,384 352,384 352,364.944 372.424,375.16 379.576,360.84 361.888,352 379.576,343.16 "/><polygon points="372.424,408.84 352,419.056 352,400 336,400 336,419.056 315.576,408.84 308.424,423.16 326.112,432 308.424,440.84 315.576,455.16 336,444.944 336,464 352,464 352,444.944 372.424,455.16 379.576,440.84 361.888,432 379.576,423.16 "/><polygon points="276.424,360.84 256,371.056 256,352 240,352 240,371.056 219.576,360.84 212.424,375.16 230.112,384 212.424,392.84 219.576,407.16 240,396.944 240,416 256,416 256,396.944 276.424,407.16 283.576,392.84 265.888,384 283.576,375.16 "/><polygon points="276.424,440.84 256,451.056 256,432 240,432 240,451.056 219.576,440.84 212.424,455.16 230.112,464 212.424,472.84 219.576,487.16 240,476.944 240,496 256,496 256,476.944 276.424,487.16 283.576,472.84 265.888,464 283.576,455.16 "/></symbol><symbol id="sun" viewBox="0 0 496 496"><title>sun</title><rect x="152.994" y="58.921" transform="matrix(0.3827 0.9239 -0.9239 0.3827 168.6176 -118.5145)" width="40.001" height="16"/><rect x="46.9" y="164.979" transform="matrix(0.9239 0.3827 -0.3827 0.9239 71.29 -12.4346)" width="40.001" height="16"/><rect x="46.947" y="315.048" transform="matrix(0.9239 -0.3827 0.3827 0.9239 -118.531 50.2116)" width="40.001" height="16"/><rect x="164.966" y="409.112" transform="matrix(-0.9238 -0.3828 0.3828 -0.9238 168.4872 891.7491)" width="16" height="39.999"/><rect x="303.031" y="421.036" transform="matrix(-0.3827 -0.9239 0.9239 -0.3827 50.2758 891.6655)" width="40.001" height="16"/><rect x="409.088" y="315.018" transform="matrix(-0.9239 -0.3827 0.3827 -0.9239 701.898 785.6559)" width="40.001" height="16"/><rect x="409.054" y="165.011" transform="matrix(-0.9239 0.3827 -0.3827 -0.9239 891.6585 168.6574)" width="40.001" height="16"/><rect x="315.001" y="46.895" transform="matrix(0.9238 0.3828 -0.3828 0.9238 50.212 -118.5529)" width="16" height="39.999"/><path d="M248,88c-88.224,0-160,71.776-160,160s71.776,160,160,160s160-71.776,160-160S336.224,88,248,88z M248,392 c-79.4,0-144-64.6-144-144s64.6-144,144-144s144,64.6,144,144S327.4,392,248,392z"/><rect x="240" width="16" height="72"/><rect x="62.097" y="90.096" transform="matrix(0.7071 0.7071 -0.7071 0.7071 98.0963 -40.6334)" width="71.999" height="16"/><rect y="240" width="72" height="16"/><rect x="90.091" y="361.915" transform="matrix(-0.7071 -0.7071 0.7071 -0.7071 -113.9157 748.643)" width="16" height="71.999"/><rect x="240" y="424" width="16" height="72"/><rect x="361.881" y="389.915" transform="matrix(-0.7071 -0.7071 0.7071 -0.7071 397.8562 960.6281)" width="71.999" height="16"/><rect x="424" y="240" width="72" height="16"/><rect x="389.911" y="62.091" transform="matrix(0.7071 0.7071 -0.7071 0.7071 185.9067 -252.6357)" width="16" height="71.999"/></symbol><symbol id="cloud" viewBox="0 0 496 496"><title>cloud</title><path d="M413.968,257.096C402.968,192.184,346.464,144,280,144c-12.056,0-23.776,1.64-34.992,4.624 C225.504,120.664,194.272,104,160,104c-57.344,0-104,46.656-104,104c0,23.72,7.968,46.264,22.576,64.6 C34.48,277.336,0,314.672,0,360c0,48.52,39.48,88,88,88h312c52.936,0,96-43.064,96-96 C496,304.424,460.464,263.928,413.968,257.096z M72,208c0-48.52,39.48-88,88-88c27.4,0,52.568,12.536,69.192,33.896 c-37.368,15.056-66.944,46.28-79.136,86.376C148.008,240.088,145.984,240,144,240c-20.12,0-39.104,8.624-52.584,23.08 C78.848,247.496,72,228.248,72,208z M400,432H88c-39.704,0-72-32.304-72-72s32.296-72,71.688-72.008l5.536,0.04l2.304-3.992 C105.536,266.744,124.12,256,144,256c3.352,0,6.856,0.336,10.424,1.008l7.424,1.4l1.824-7.336C176.96,197.448,224.8,160,280,160 c60.512,0,111.672,45.28,119.008,105.32l0.56,4.592C399.84,273.24,400,276.6,400,280c0,66.168-53.832,120-120,120v16 c74.992,0,136-61.008,136-136c0-2.12-0.176-4.2-0.272-6.296C452.432,281.088,480,313.768,480,352 C480,396.112,444.112,432,400,432z"/><rect y="200" width="40" height="16"/><rect x="250.99" y="89.01" transform="matrix(0.7071 0.7071 -0.7071 0.7071 152.9384 -151.2055)" width="16" height="40"/><rect x="152" y="48" width="16" height="40"/><rect x="40.98" y="100.971" transform="matrix(0.7072 0.7071 -0.7071 0.7072 94.9074 -11.2058)" width="40.002" height="16.001"/><rect x="97.481" y="78.043" transform="matrix(0.3828 0.9238 -0.9238 0.3828 147.0594 -48.0366)" width="23.999" height="16"/><rect x="26.082" y="149.521" transform="matrix(0.9239 0.3827 -0.3827 0.9239 63.1808 -2.5828)" width="24.001" height="16"/><rect x="30.028" y="246.475" transform="matrix(-0.3828 -0.9238 0.9238 -0.3828 -186.2008 392.5536)" width="16" height="23.999"/><rect x="202.512" y="74.053" transform="matrix(0.9238 0.3828 -0.3828 0.9238 48.9774 -74.0317)" width="16" height="23.999"/></symbol></svg>